PathFileType	4	(X/Y/Z)	C:/Users/beibeiliu/ov580/test_trc/User2\sequence.33_training_dense_right.trc
DataRate	CameraRate	NumFrames	NumMarkers	Units	OrigDataRate	OrigDataStartFrame	OrigNumFrames
120	120	20	19	mm	120	54	424
Frame#	Time	ThumbCMC			ThumbMCP			ThumbIP			ThumbTip			IndexMCP			IndexPIP			IndexTip			MiddleMCP			MiddlePIP			MiddleTip			RingMCP			RingPIP			RingTip			PinkyMCP			PinkyPIP			PinkyTip			BackHand1			BackHand2			BackHand3	
		X0	Y0	Z0	X1	Y1	Z1	X2	Y2	Z2	X3	Y3	Z3	X4	Y4	Z4	X5	Y5	Z5	X6	Y6	Z6	X7	Y7	Z7	X8	Y8	Z8	X9	Y9	Z9	X10	Y10	Z10	X11	Y11	Z11	X12	Y12	Z12	X13	Y13	Z13	X14	Y14	Z14	X15	Y15	Z15	X16	Y16	Z16	X17	Y17	Z17	X18	Y18	Z18	
53	0.441667	132.117	-55.9332	24.3694	116.622	-45.6242	-5.04496	93.1029	-43.6176	-27.3022	64.0839	-51.4594	-39.8786	69.7405	-96.7905	-15.0354	44.8845	-77.0553	-17.0041	59.2569	-53.4694	6.71169	53.461	-101.855	-0.930961	33.1837	-68.5086	4.20101	59.5768	-51.241	26.9055	37.3112	-96.3994	22.6542	31.2139	-66.8469	25.8447	66.1618	-53.6121	37.9475	38.8928	-94.7986	45.7685	37.4061	-61.595	47.4564	68.8505	-53.4428	52.057	96.4795	-114.954	55.7619	121.497	-103.331	75.7251	128.775	-96.3569	36.6398	
54	0.45	131.106	-55.8795	29.0116	117.059	-46.2474	1.40014	92.7496	-45.6171	-26.4328	69.0769	-47.9967	-35.8215	65.8423	-94.6722	-13.5652	45.5909	-69.4825	-13.8707	61.7877	-49.7871	8.11738	51.2515	-98.45	1.38031	35.1511	-64.6419	6.49098	61.1369	-47.2359	25.5008	39.6728	-92.129	22.5509	31.7558	-63.8157	29.4303	63.2196	-50.5407	41.8681	37.5898	-89.3998	45.2776	41.8152	-57.2255	47.8831	74.477	-53.2793	59.3205	94.9266	-112.178	53.9586	120.387	-102.095	79.5004	127.139	-96.5942	37.4093	
55	0.458333	131.363	-55.8199	30.5219	116.575	-48.3598	1.07884	95.9298	-43.6862	-23.8107	67.6205	-50.6829	-32.7008	69.5741	-91.7603	-13.3612	47.611	-69.5241	-11.5226	63.7411	-48.6951	9.93501	52.9895	-97.1349	3.69417	36.3406	-65.0129	6.36079	65.1203	-46.2686	30.2049	41.2272	-92.9955	27.4293	37.2883	-58.8296	26.7671	65.2616	-48.2639	46.9706	40.8056	-89.412	46.9276	42.2291	-54.5324	51.2456	73.7314	-51.0088	57.4576	95.0415	-112.727	56.7683	120.989	-99.8343	81.2489	129.091	-93.5106	38.431	
56	0.466667	134.279	-55.3318	31.5841	119.356	-45.8144	1.94328	97.219	-45.5658	-22.7926	71.7701	-49.7394	-33.2067	71.5451	-91.2549	-10.6671	52.693	-68.5243	-14.0442	70.4946	-46.2614	11.1302	56.8375	-96.9371	4.47507	38.0512	-66.8617	6.85843	64.8716	-44.7176	28.3732	46.3809	-91.2773	24.886	36.2256	-59.1516	30.0995	65.1746	-46.9925	46.7649	43.9085	-87.1363	45.285	43.8242	-53.566	51.061	74.7552	-51.013	63.2164	97.347	-109.871	61.1308	122.666	-99.7779	82.4657	129.158	-93.7358	43.4001	
57	0.475	139.21	-53.28	33.5807	123.655	-46.3854	1.26721	101.581	-44.7664	-26.6473	79.2081	-48.8221	-31.9525	81.0612	-90.6693	-12.5571	57.6118	-67.0358	-13.0997	76.915	-47.7508	12.51	61.3252	-97.1624	4.88376	43.9466	-63.5739	4.27707	67.5105	-44.7135	28.4223	49.3846	-92.4117	25.7716	40.1109	-60.8873	25.757	71.2669	-45.417	41.1193	43.9719	-85.6699	45.4888	49.9258	-54.1956	45.6209	82.1821	-50.2445	60.887	103.316	-108.87	58.963	122.95	-100.111	82.491	133.144	-93.391	45.8672	
58	0.483333	142.636	-53.8895	34.176	131.143	-43.156	4.97919	112.955	-41.9202	-24.3686	85.359	-50.7585	-33.7127	89.2031	-91.2427	-12.012	67.7997	-65.1918	-16.9426	83.7101	-47.5559	8.75976	71.8262	-99.0572	2.38561	49.6367	-65.9283	3.39278	75.8303	-43.5206	25.1325	58.7626	-93.3024	18.5311	46.2721	-62.4461	24.2872	72.0193	-46.0354	39.7827	51.0187	-88.6457	42.8592	53.789	-55.0785	45.1907	82.844	-48.8585	60.7277	106.537	-108.404	62.013	129.55	-97.6244	87.5391	140.589	-91.582	48.6755	
59	0.491667	147.874	-53.5669	37.3179	140.074	-43.835	3.95667	117.737	-48.3819	-22.332	96.7625	-52.7923	-35.7497	101.726	-91.8005	-16.4263	77.4119	-70.8383	-19.4232	89.3652	-51.7194	9.97327	78.8784	-99.7719	-2.56648	58.9399	-69.0817	-2.9684	77.2791	-46.5903	22.446	63.7689	-96.5413	16.7171	51.9546	-65.446	18.7492	74.9867	-48.0224	39.3943	58.1166	-93.2549	39.6392	56.3201	-58.9375	41.8552	83.7308	-51.7884	55.7181	111.125	-110.605	56.9579	133.31	-98.2493	87.6849	146.648	-92.4132	51.5222	
60	0.5	156.561	-51.5108	38.4456	144.962	-48.216	8.09311	130.231	-49.2513	-23.9348	107.686	-57.0273	-41.2286	108.79	-96.7179	-17.8405	87.7624	-71.0498	-22.5198	99.2765	-51.3202	5.61578	92.7834	-104.055	-4.3889	71.0498	-73.953	-10.7863	86.7346	-49.2801	22.7929	69.8763	-98.1519	12.1656	60.5445	-69.7184	13.8552	82.0783	-50.4684	36.6505	64.1736	-95.8622	36.3815	66.8546	-60.9737	34.4766	86.0765	-52.1062	55.3003	117.028	-113.38	59.3351	135.643	-99.8361	87.9107	151.285	-94.7009	50.3708	
61	0.508333	159.698	-55.1142	37.9765	155.413	-46.1436	6.75898	140.947	-51.0939	-26.5223	119.312	-61.4455	-38.8389	123.644	-99.271	-16.5431	95.8372	-78.322	-24.2225	104.13	-55.3984	-0.774945	99.7835	-108.128	-2.82145	79.6806	-76.4242	-13.8739	93.1591	-52.0484	14.1493	82.4271	-101.77	8.25985	68.85	-74.8858	5.90385	86.2742	-52.5742	30.5589	72.4387	-97.2576	28.0458	68.2121	-66.6743	30.208	95.9381	-53.6201	50.568	120.822	-113.813	58.3633	137.262	-99.9961	87.9556	158.502	-92.4964	51.7772	
62	0.516667	165.351	-55.3486	41.0007	160.511	-50.4849	9.28106	149.551	-57.7011	-26.4763	130.982	-67.218	-41.6677	130.272	-103.755	-13.6883	106.475	-86.1643	-26.2692	111.389	-57.7432	-1.46831	105.807	-111.815	-8.36356	88.2921	-82.2946	-16.4919	99.2958	-56.3068	15.3004	88.3238	-107.82	9.44184	77.7311	-75.4374	2.3793	94.8712	-55.1964	30.1388	76.3811	-103.992	28.4495	75.3312	-69.1623	24.9338	99.3002	-57.8495	45.0929	127.092	-114.022	61.2636	138.392	-100.204	92.6283	159.197	-93.8426	54.8789	
63	0.525	167.868	-57.1489	41.9333	165.545	-54.1832	10.6071	159.248	-59.4827	-23.7083	138.662	-73.4139	-42.6058	136.813	-107.635	-12.5979	116.142	-85.0664	-29.6859	116.272	-64.0534	0.997706	114.507	-115.656	-5.28425	94.9408	-89.6823	-17.3178	103.928	-59.7648	15.5376	94.6943	-112.348	9.09328	81.1004	-83.1709	2.41239	96.2723	-61.3205	25.9756	82.0631	-108.632	26.2674	79.7903	-77.6311	19.5875	98.3966	-60.1957	41.65	130.126	-119.263	60.5327	139.903	-99.7166	93.3837	163.682	-93.8035	56.7338	
64	0.533333	168.76	-56.2956	49.3111	170.754	-56.8374	10.8757	165.133	-59.9739	-20.3866	145.516	-77.3021	-38.934	147.28	-110.016	-12.442	121.776	-88.6121	-28.7254	121.292	-67.2965	-0.369477	123.363	-117.848	-7.04999	99.1732	-92.5974	-16.2083	108.316	-63.2022	9.75076	100.543	-116.284	7.04381	84.9079	-84.4342	1.36773	100.625	-65.0099	22.4353	87.9393	-112.302	23.2076	82.8731	-79.2844	18.6601	99.0282	-63.6224	41.5229	131.113	-121.634	61.6677	140.19	-103.13	94.2639	164.362	-95.4448	62.1386	
65	0.541667	169.997	-58.0331	48.8098	169.166	-57.9894	16.1436	167.259	-63.1336	-17.6606	149.719	-76.6489	-36.2861	149.481	-112.734	-10.2174	122.712	-95.9331	-25.4059	121.975	-71.2741	-2.62653	121.957	-122.395	-6.90441	102.736	-96.1411	-16.9879	109.742	-67.0289	8.1347	104.774	-117.829	3.70962	91.4143	-90.2023	-2.27738	105.797	-67.9651	23.3039	90.4141	-115	20.9493	84.2685	-81.5156	19.7948	101.948	-69.8137	39.9284	133.885	-121.984	64.6709	141.424	-102.23	94.7028	165.618	-100.451	63.037	
66	0.55	170.025	-58.2813	49.3719	169.286	-56.5465	17.9295	167.717	-64.6347	-18.9551	149.777	-78.2662	-34.4982	147.254	-113.449	-11.5163	127.308	-97.2201	-29.2176	124.912	-69.4913	-0.926511	127.254	-123.02	-4.55929	103.864	-97.0793	-17.7451	110.3	-68.854	13.1469	103.268	-120.432	2.63797	89.9139	-90.5982	-0.946832	103.635	-70.6351	22.5491	91.3876	-118.929	21.2048	84.026	-88.5886	16.5942	99.6924	-72.7555	43.7288	133.446	-126.661	62.8796	139.508	-106.134	93.3118	165.491	-97.7265	64.9522	
67	0.558333	169.75	-56.5751	50.1592	168.256	-55.9552	17.8196	163.558	-64.9762	-16.2418	149.85	-75.4565	-35.7483	147.6	-112.719	-11.3151	126.322	-95.078	-28.1585	122.709	-71.8294	-0.143055	127.477	-119.757	-9.44182	103.163	-97.6947	-17.8406	106.558	-70.1264	11.3516	105.683	-122.815	6.55134	89.9422	-95.0993	-2.94328	100.933	-72.0404	23.0809	89.7299	-120.674	22.8852	85.4142	-85.5988	16.9151	98.4559	-73.7978	41.8396	135.412	-123.164	64.2098	139.563	-106.841	96.8575	167.691	-97.442	61.8209	
68	0.566667	166.296	-54.6612	50.4593	164.538	-53.078	20.2748	164.074	-56.9001	-18.186	148.378	-71.9894	-37.44	147.481	-109.969	-9.68916	123.207	-97.4993	-27.7736	122.121	-69.5062	-3.83616	123.492	-120.869	-9.20184	101.166	-97.0994	-17.614	104.432	-68.7629	11.6617	102.874	-121.656	5.14545	89.2428	-94.0741	-3.04648	101.748	-69.7899	24.6496	90.4701	-119.161	21.1198	82.9026	-90.1986	15.6862	100.456	-73.7452	41.752	137.102	-121.146	62.7356	140.297	-107.527	92.4883	163.575	-98.2598	62.717	
69	0.575	161.853	-57.0329	48.3222	161.267	-50.6374	19.0104	158.268	-55.4456	-19.2995	143.01	-64.9749	-36.8192	144.294	-105.165	-16.8382	120.155	-90.3503	-29.7492	118.417	-65.5919	-4.06837	123.602	-116.551	-9.92902	99.4932	-91.8252	-20.0455	100.818	-67.4986	13.7617	102.258	-118.764	4.90768	87.1131	-92.0729	-3.36491	95.5749	-70.1557	26.9945	89.7895	-115.545	18.6389	76.1294	-87.586	18.0281	93.5602	-72.5537	40.9593	133.905	-122.465	59.6646	143.72	-102.776	91.8073	164.629	-91.1647	61.9769	
70	0.583333	159.132	-52.5832	48.5136	155.595	-47.2847	15.4694	152.262	-46.6001	-21.0064	134.062	-60.2436	-39.4564	134.709	-101.882	-18.516	112.621	-83.8796	-29.9138	114.721	-58.8327	-0.781703	115.733	-114.105	-9.13729	94.2176	-87.9781	-20.5381	95.4501	-64.4184	13.2774	98.9248	-113.283	3.28613	80.9247	-87.8153	-2.86349	94.5812	-65.3417	24.2465	85.2081	-113.065	18.3952	74.4885	-81.1855	19.796	92.3987	-68.5503	38.5614	130.538	-119.672	56.1431	140.882	-104.578	86.0845	162.921	-93.4367	57.6343	
71	0.591667	155.796	-49.6053	45.1588	152.16	-38.8377	14.3113	138.739	-42.742	-19.7146	120.338	-53.7789	-40.0351	128.525	-94.9993	-19.1329	100.685	-78.5456	-25.9009	103.709	-54.892	-2.21397	108.229	-105.099	-13.4368	84.2118	-81.6031	-17.6227	94.2066	-56.1347	16.1844	89.9271	-108.208	3.30735	70.8091	-84.6931	3.76204	89.8107	-61.5017	30.0573	79.2573	-110.087	24.4202	69.2829	-79.7264	20.4612	86.64	-65.9371	41.2978	129.69	-117.138	57.2654	141.815	-100.233	88.1974	158.76	-86.589	56.5687	
72	0.6	151.727	-44.3528	46.5052	141.855	-35.5821	11.8908	126.399	-35.9619	-19.0401	105.589	-45.4527	-35.1065	118.489	-89.9814	-16.5723	88.8883	-70.8894	-23.7388	94.9725	-50.2687	4.55091	98.0149	-100.02	-10.6983	71.2879	-75.7267	-10.3717	83.6247	-51.9193	17.6029	83.3601	-103.88	6.14551	65.4088	-75.4326	6.2884	81.331	-58.6983	34.8032	74.7419	-105.143	26.865	64.5681	-71.6591	28.0042	84.7622	-60.0589	50.6997	126.27	-113.064	54.4326	138.551	-102.265	81.8282	155.517	-84.2654	47.522	
